<svg width="512" height="512" viewBox="0 0 512 512" fill="none" xmlns="http://www.w3.org/2000/svg">
<path d="M383.997 0H128.003C57.6112 0 0.00634766 57.6048 0.00634766 127.997V384.003C0.00634766 454.376 57.6112 512 128.003 512H383.997C454.389 512 511.994 454.376 511.994 384.003V127.997C511.994 57.6048 454.389 0 383.997 0ZM469.326 384.003C469.326 431.042 431.062 469.332 383.997 469.332H128.003C80.9581 469.332 42.6741 431.042 42.6741 384.003V127.997C42.6741 80.9455 80.9581 42.6677 128.003 42.6677H383.997C431.062 42.6677 469.326 80.9455 469.326 127.997V384.003Z" fill="#666666"/>
<path d="M394.684 149.328C412.357 149.328 426.684 135.001 426.684 117.328C426.684 99.6557 412.357 85.3292 394.684 85.3292C377.012 85.3292 362.685 99.6557 362.685 117.328C362.685 135.001 377.012 149.328 394.684 149.328Z" fill="#666666"/>
<path d="M256 127.997C185.295 127.997 128.003 185.294 128.003 255.994C128.003 326.667 185.295 384.003 256 384.003C326.686 384.003 383.997 326.667 383.997 255.994C383.997 185.294 326.686 127.997 256 127.997ZM256 341.335C208.878 341.335 170.671 303.129 170.671 255.994C170.671 208.859 208.878 170.665 256 170.665C303.123 170.665 341.329 208.859 341.329 255.994C341.329 303.129 303.123 341.335 256 341.335Z" fill="#666666"/>
</svg>
