<svg width="512" height="512" viewBox="0 0 512 512" fill="none" xmlns="http://www.w3.org/2000/svg">
<path d="M509.738 109.538C506.711 104.614 501.172 101.823 495.406 102.323L469.876 104.547L494.279 55.354C497.185 49.495 496.037 42.436 491.425 37.799C486.811 33.162 479.759 31.98 473.886 34.856L409.299 66.487C369.396 45.421 319.543 51.674 285.239 82.923C256.609 109.003 241.56 149.11 244.366 189.106C169.537 181.606 106.197 138.775 68.7428 69.569C66.2578 64.978 61.5988 61.975 56.3918 61.606C51.1748 61.243 46.1488 63.555 43.0428 67.752C19.8128 99.134 18.1828 142.162 36.3938 177.561C31.3738 176.293 26.0318 174.577 20.1078 172.598C15.0328 170.901 9.43778 171.988 5.36478 175.46C1.29178 178.932 -0.666215 184.283 0.204785 189.564C7.41078 233.252 32.8868 266.828 73.1308 286.702C67.8908 288.527 62.5438 290.009 57.1068 291.142C51.7048 292.268 47.3308 296.22 45.6658 301.481C44.0008 306.741 45.3028 312.491 49.0728 316.52C78.0538 347.498 119.918 362.745 149.654 370.059C115.844 396.536 79.3468 400.967 26.3128 399.146C20.1738 398.96 14.5178 402.418 11.9368 407.983C9.35678 413.549 10.3578 420.119 14.4808 424.664C36.5888 449.033 117.135 476.511 201.807 478.571C205.156 478.652 208.572 478.696 212.06 478.696C271.511 478.695 350.082 465.951 406.479 409.554C449.166 366.868 475.866 317.727 485.835 263.501C493.887 219.704 488.798 184.632 486.353 167.776C486.173 166.537 485.981 165.222 485.825 164.072L509.706 125.582C512.752 120.672 512.765 114.462 509.738 109.538ZM456.132 172.16C460.663 203.384 474.448 298.4 384.887 387.961C332.827 440.02 256.999 449.368 202.549 448.045C156.088 446.915 114.53 438.029 84.4098 427.895C96.6388 426.395 107.537 424.081 117.824 420.884C146.183 412.069 170.141 396.208 193.219 370.969C197.066 366.762 198.248 360.764 196.287 355.412C194.326 350.06 189.546 346.246 183.892 345.522C169.333 343.656 125.587 336.292 91.1388 312.53C101.066 308.47 110.64 303.389 119.782 297.325C124.797 293.997 127.391 288.035 126.403 282.098C125.416 276.162 121.035 271.357 115.213 269.831C87.0178 262.439 52.9898 245.899 37.2988 208.976C47.3188 210.732 58.2138 211.157 69.8338 208.552C75.2198 207.346 79.5358 203.326 81.1198 198.038C82.7048 192.75 81.3128 187.018 77.4788 183.048C57.9548 162.826 50.6538 133.684 56.9178 108.747C77.4318 138.728 103.421 163.96 133.197 182.615C171.288 206.48 215.746 219.669 261.767 220.752C266.45 220.851 270.942 218.807 273.924 215.179C276.904 211.552 278.05 206.755 277.031 202.172C269.113 166.577 280.406 128.631 305.802 105.498C332.142 81.503 371.071 77.863 400.468 96.652C404.957 99.521 410.62 99.842 415.406 97.498L446.947 82.05L430.438 115.331C427.985 120.276 428.392 126.16 431.503 130.719C434.613 135.278 439.934 137.809 445.441 137.326L467.683 135.389L457.437 151.904C453.998 157.447 454.711 162.365 456.132 172.16Z" fill="#666666"/>
</svg>
